<svg width="40.000000" height="40.000000" viewBox="0 0 40 40" fill="none" xmlns="http://www.w3.org/2000/svg" xmlns:xlink="http://www.w3.org/1999/xlink">
	<desc>
			Created with Pixso.
	</desc>
	<defs>
		<clipPath id="clip1_351">
			<rect id="project" width="40.000000" height="40.000000" fill="white" fill-opacity="0"/>
		</clipPath>
	</defs>
	<rect id="project" width="40.000000" height="40.000000" fill="#FFFFFF" fill-opacity="0"/>
	<g clip-path="url(#clip1_351)">
		<path id="Vector" d="M39.33 0L9.33 0C8.96 0 8.66 0.29 8.66 0.66L8.66 10.66L10 10.66L10 1.33L38.66 1.33L38.66 38C38.67 38.35 38.4 38.64 38.05 38.66C37.99 38.66 37.93 38.66 37.88 38.66C37.76 38.65 37.64 38.65 37.52 38.64C37.51 38.64 37.5 38.64 37.49 38.63C35.32 38.4 33.6 36.68 33.36 34.5C33.36 34.49 33.35 34.48 33.35 34.47C33.33 34.31 33.33 34.15 33.33 34L33.33 32.66C33.33 32.29 33.03 32 32.66 32L10 32L10 20L8.66 20L8.66 32L3.33 32C2.96 32 2.66 32.29 2.66 32.66L2.66 34C2.66 37.31 5.35 39.99 8.66 40L38.06 40C39.14 39.97 40 39.08 40 38L40 0.66C40 0.29 39.7 0 39.33 0ZM8.66 38.66C6.08 38.66 4 36.57 4 34L4 33.33L32 33.33L32 34C32 34.21 32.01 34.43 32.03 34.65C32.04 34.71 32.05 34.77 32.06 34.82C32.08 34.99 32.11 35.15 32.14 35.3C32.15 35.36 32.17 35.41 32.18 35.47C32.22 35.63 32.27 35.79 32.32 35.94C32.34 35.99 32.35 36.03 32.37 36.08C32.43 36.24 32.5 36.4 32.58 36.56C32.59 36.6 32.61 36.63 32.62 36.66C32.71 36.83 32.8 36.99 32.9 37.15C32.91 37.17 32.92 37.2 32.94 37.22C33.05 37.39 33.16 37.55 33.29 37.71L33.31 37.74C33.45 37.92 33.61 38.1 33.78 38.26C33.92 38.41 34.07 38.54 34.22 38.66L8.66 38.66Z" fill="#4985FF" fill-opacity="1.000000" fill-rule="nonzero"/>
		<path id="Vector" d="M22 18.66C22.17 18.66 22.34 18.59 22.47 18.47L25.13 15.8C25.39 15.54 25.39 15.12 25.13 14.86L22.47 12.19C22.34 12.07 22.17 12 22 12L3.33 12C1.49 12 0 13.49 0 15.33C0 17.17 1.49 18.66 3.33 18.66L22 18.66ZM21.82 13.43L23.72 15.33L21.82 17.22L21.35 15.33L21.82 13.43ZM5.33 13.33L20.48 13.33L20.14 14.66L6.66 14.66L6.66 16L20.14 16L20.48 17.33L5.33 17.33L5.33 13.33ZM1.33 15.33C1.33 14.22 2.22 13.33 3.33 13.33L4 13.33L4 17.33L3.33 17.33C2.22 17.33 1.33 16.43 1.33 15.33Z" fill="#4985FF" fill-opacity="1.000000" fill-rule="nonzero"/>
		<path id="Vector" d="M15.33 28.66L35.33 28.66C35.7 28.66 36 28.36 36 28L36 8C36 7.63 35.7 7.33 35.33 7.33C35.15 7.33 34.98 7.4 34.86 7.52L14.86 27.52C14.6 27.78 14.6 28.21 14.86 28.47C14.98 28.59 15.15 28.66 15.33 28.66ZM34.66 9.6L34.66 11.33L33.33 11.33L33.33 12.66L34.66 12.66L34.66 14L33.33 14L33.33 15.33L34.66 15.33L34.66 16.66L33.33 16.66L33.33 18L34.66 18L34.66 19.33L33.33 19.33L33.33 20.66L34.66 20.66L34.66 22L33.33 22L33.33 23.33L34.66 23.33L34.66 24.66L33.33 24.66L33.33 26L34.66 26L34.66 27.33L33.33 27.33L33.33 26L32 26L32 27.33L30.66 27.33L30.66 26L29.33 26L29.33 27.33L28 27.33L28 26L26.66 26L26.66 27.33L25.33 27.33L25.33 26L24 26L24 27.33L22.66 27.33L22.66 26L21.33 26L21.33 27.33L20 27.33L20 26L18.66 26L18.66 27.33L16.94 27.33L34.66 9.6Z" fill="#4985FF" fill-opacity="1.000000" fill-rule="nonzero"/>
		<path id="Vector" d="M24.99 24.66L31.33 24.66C31.7 24.66 32 24.36 32 24L32 17.65C32 17.28 31.7 16.99 31.33 16.99C31.15 16.99 30.98 17.06 30.86 17.18L24.51 23.52C24.25 23.78 24.25 24.21 24.51 24.47C24.64 24.59 24.81 24.66 24.99 24.66ZM30.66 19.26L30.66 23.33L26.6 23.33L30.66 19.26Z" fill="#4985FF" fill-opacity="1.000000" fill-rule="nonzero"/>
		<path id="Vector" d="M17.33 4L30.66 4L30.66 5.33L17.33 5.33L17.33 4Z" fill="#4985FF" fill-opacity="1.000000" fill-rule="evenodd"/>
		<path id="Vector" d="M15.33 6.66L32.66 6.66L32.66 8L15.33 8L15.33 6.66Z" fill="#4985FF" fill-opacity="1.000000" fill-rule="evenodd"/>
		<path id="Vector" d="M11.33 20.66L15.33 20.66L15.33 22L11.33 22L11.33 20.66Z" fill="#4985FF" fill-opacity="1.000000" fill-rule="evenodd"/>
		<path id="Vector" d="M11.33 23.33L14 23.33L14 24.66L11.33 24.66L11.33 23.33Z" fill="#4985FF" fill-opacity="1.000000" fill-rule="evenodd"/>
	</g>
</svg>
